<svg xmlns:sketch="http://www.bohemiancoding.com/sketch/ns" xmlns="http://www.w3.org/2000/svg" xmlns:xlink="http://www.w3.org/1999/xlink" version="1.1" id="Layer_1" x="0px" y="0px" viewBox="14 16 17.6 18" style="enable-background:new 14 16 17.6 18;" xml:space="preserve">
<title>google icon</title>
<g id="Google-Button">
  <g transform="translate(-728.000000, -160.000000)">
  </g>
  <path id="Shape" fill="#4285F4" d="M31.6,25.2c0-0.6-0.1-1.3-0.2-1.8H23v3.5h4.8C27.6,28,27,28.9,26,29.6     v2.3H29C30.7,30.3,31.6,27.9,31.6,25.2L31.6,25.2z"/>
  <path id="Shape_1_" fill="#34A853" d="M23,34c2.4,0,4.5-0.8,6-2.2L26,29.6c-0.8,0.5-1.8,0.9-3,0.9     c-2.3,0-4.3-1.6-5-3.7h-3V29C16.4,32,19.5,34,23,34L23,34z"/>
  <path id="Shape_2_" fill="#FBBC05" d="M18,26.7c-0.2-0.5-0.3-1.1-0.3-1.7s0.1-1.2,0.3-1.7V21h-3     c-0.6,1.2-1,2.6-1,4s0.3,2.8,1,4L18,26.7L18,26.7z"/>
  <path id="Shape_3_" fill="#EA4335" d="M23,19.6c1.3,0,2.5,0.5,3.4,1.3l2.6-2.6c-1.6-1.5-3.6-2.3-6-2.3     c-3.5,0-6.6,2-8,5l3,2.3C18.7,21.2,20.7,19.6,23,19.6L23,19.6z"/>
</g>
</svg>